<?xml version="1.0" encoding="utf-8"?>
<!-- Generator: Adobe Illustrator 21.1.0, SVG Export Plug-In . SVG Version: 6.00 Build 0)  -->
<svg version="1.1" id="Capa_1" xmlns="http://www.w3.org/2000/svg" xmlns:xlink="http://www.w3.org/1999/xlink" x="0px" y="0px"
	 viewBox="0 0 512 454" style="enable-background:new 0 0 512 454;" xml:space="preserve">
<style type="text/css">
	.st0{fill:#263343;}
</style>
<g>
	<path class="st0" d="M256,383.4c-9.4,0-18.8-4.9-28.5-14.6c-3.8-3.8-3.8-10,0-13.9c3.8-3.8,10-3.8,13.9,0c6,6,10.8,8.9,14.6,8.9
		c3.9,0,8.7-2.9,14.6-8.9c3.8-3.8,10-3.8,13.9,0c3.8,3.8,3.8,10,0,13.9C274.8,378.6,265.4,383.4,256,383.4z M5,233.2
		c0,24.5,2.1,46.6,6.3,66.5c4.2,19.9,10.1,37.1,17.6,51.7c7.6,14.6,17.2,27.4,28.8,38.4c11.6,11,24.2,20.1,37.8,27.2
		c13.6,7.1,29.2,12.9,46.7,17.3c17.5,4.4,35.3,7.5,53.5,9.2c18.1,1.8,38.1,2.6,59.9,2.6c21.8,0,41.8-0.9,60-2.6
		c18.2-1.8,36.1-4.8,53.6-9.2c17.5-4.4,33.1-10.2,46.8-17.3c13.7-7.1,26.4-16.2,38-27.2c11.7-11,21.3-23.8,28.9-38.4
		c7.6-14.6,13.5-31.9,17.8-51.7c4.3-19.9,6.4-42.1,6.4-66.5c0-43.8-13.6-81.6-40.8-113.2c1.6-4.2,2.9-9.1,4.1-14.5
		c1.1-5.5,2.2-13.2,3.3-23.1c1-9.9,0.7-21.4-1.2-34.4c-1.8-13-5.3-26.3-10.3-39.9l-3.9-0.8c-2.6-0.5-6.9-0.4-12.8,0.5
		c-5.9,0.9-12.9,2.5-20.8,4.8c-7.9,2.3-18.2,6.8-30.7,13.6C381.2,32.9,368,41.5,354,51.9c-23.7-7.2-56.4-14.8-98-14.8
		c-41.7,0-74.4,7.5-98.3,14.8c-13.9-10.4-27.2-18.9-39.9-25.6C105.2,19.6,95.1,15,87.5,12.6c-7.6-2.5-14.6-4-21-4.8
		C60,7.1,55.9,6.9,54,7.2c-1.8,0.3-3.2,0.6-4.1,0.9c-5.1,13.6-8.5,26.8-10.5,39.9c-1.9,13-2.4,24.5-1.3,34.3
		c1,9.9,2.2,17.6,3.4,23.2c1.2,5.6,2.6,10.5,4.2,14.5C18.6,151.5,5,189.2,5,233.2z M71.9,289.1c0-28.4,10.5-54.2,31.4-77.4
		c6.3-7.1,13.6-12.4,21.8-16c8.3-3.6,17.7-5.7,28.2-6.2s20.6-0.4,30.2,0.3c9.6,0.7,21.4,1.6,35.6,2.8c14.1,1.2,26.3,1.8,36.6,1.8
		c10.3,0,22.5-0.6,36.6-1.8c14.1-1.2,26-2.1,35.6-2.8c9.6-0.7,19.7-0.8,30.2-0.3c10.5,0.5,20,2.6,28.4,6.2c8.4,3.6,15.7,9,22,16
		c20.9,23.1,31.4,48.9,31.4,77.4c0,16.7-1.7,31.5-5.2,44.6c-3.5,13-7.9,24-13.2,32.8c-5.3,8.8-12.8,16.3-22.4,22.4
		c-9.6,6.1-18.9,10.8-27.8,14.1c-9,3.3-20.6,5.9-34.8,7.8c-14.2,1.9-26.9,3-38.2,3.4c-11.2,0.4-25.4,0.6-42.5,0.6
		c-17.1,0-31.2-0.2-42.4-0.6c-11.2-0.4-23.8-1.5-38-3.4c-14.2-1.9-25.8-4.5-34.8-7.8c-9-3.3-18.3-8-27.8-14.1
		c-9.6-6.1-17-13.5-22.4-22.4c-5.3-8.8-9.7-19.8-13.2-32.8S71.9,305.8,71.9,289.1z M130.5,273.7c0,26,14,47.1,31.4,47.1
		s31.4-21.1,31.4-47.1s-14-47.1-31.4-47.1S130.5,247.7,130.5,273.7z M318.7,273.7c0,26,14,47.1,31.4,47.1s31.4-21.1,31.4-47.1
		s-14-47.1-31.4-47.1S318.7,247.7,318.7,273.7z"/>
</g>
</svg>
