<?xml version="1.0" encoding="utf-8"?>
<!-- Generator: Adobe Illustrator 21.1.0, SVG Export Plug-In . SVG Version: 6.00 Build 0)  -->
<svg version="1.1" id="圖層_1" xmlns="http://www.w3.org/2000/svg" xmlns:xlink="http://www.w3.org/1999/xlink" x="0px" y="0px"
	 viewBox="0 0 227 62" style="enable-background:new 0 0 227 62;" xml:space="preserve">
<style type="text/css">
	.st0{fill:#FFFFFF;}
	.st1{fill:#1296B3;}
	.st2{font-family:'Helvetica';}
	.st3{font-size:40px;}
	.st4{fill:none;stroke:#FFFFFF;stroke-width:3.2;}
	.st5{fill:#AA1313;}
	.st6{fill:none;stroke:#AA1313;stroke-width:3.2;}
</style>
<g>
	<path d="M12.3,47h6.3l3.3-8.4h15.2l3.8,8.5l6.1,0.1L29.2,9.7L12.3,47z M35,31.8h-5.8v-2.2l-5,2.2l5-11.9C29.2,19.9,35,31.8,35,31.8
		z"/>
	<path class="st0" d="M12.3,47h6.3l3.3-8.4h15.2l3.8,8.5l6.1,0.1L29.2,9.7L12.3,47z M35,31.8h-5.8v-2.2l-5,2.2l5-11.9
		C29.2,19.9,35,31.8,35,31.8z"/>
	<path class="st1" d="M22.4,33.2v0.6h-1v3h-0.7v-3h-1v-0.6C19.7,33.2,22.4,33.2,22.4,33.2z M22.8,36.7h-0.7l1.5-3.5h0.7l1.5,3.5
		h-0.7l-0.4-1h-1.2l0.2-0.6h0.7L24,33.9L22.8,36.7L22.8,36.7z M27,33.2v3.5h-0.7v-3.5H27z M27.5,33.2h0.7l0.4,2.5l0.9-2.5h0.6
		l0.9,2.4l0.4-2.4H32l-0.7,3.5h-0.6l-1-2.8l-1.1,2.8H28L27.5,33.2L27.5,33.2z M32.8,36.7h-0.7l1.5-3.5h0.7l1.5,3.5h-0.7l-0.4-1h-1.2
		l0.2-0.6h0.7L34,33.9L32.8,36.7L32.8,36.7z M36.4,36.7v-3.5H37l1.9,2.6v-2.6h0.6v3.5h-0.7L37,34.1v2.6L36.4,36.7L36.4,36.7z"/>
	<path class="st0" d="M181.9,1v1.4h-2.6V10h-1.7V2.4H175V1H181.9z M182.8,10h-1.7l3.9-9h1.8l3.9,9h-1.8l-1-2.5h-3l0.6-1.4h1.8
		l-1.4-3.4L182.8,10L182.8,10z M193.5,1v9h-1.7V1H193.5L193.5,1z M194.7,1h1.7l1,6.5l2.4-6.5h1.6l2.2,6.2l1-6.2h1.7l-1.7,9H203
		l-2.5-7.1l-2.7,7.1h-1.6L194.7,1z M208.4,10h-1.7l3.9-9h1.8l3.9,9h-1.8l-1-2.5h-3l0.6-1.4h1.8l-1.4-3.4L208.4,10L208.4,10z
		 M217.4,10V1h1.7l4.8,6.6V1h1.6v9h-1.7L219,3.3V10H217.4L217.4,10z"/>
	<g>
		<text transform="matrix(1 0 0 1 61.575 47.7171)" class="st0 st2 st3">NGULAR</text>
	</g>
	<g>
		<path class="st4" d="M2,11.6L29.3,2l28,9.4l-4.5,35.7L29.3,60L6.2,47.3L2,11.6z"/>
	</g>
</g>
<g>
	<path d="M259.3,47h6.3l3.3-8.4h15.2l3.8,8.5l6.1,0.1L276.2,9.7L259.3,47z M282,31.8h-5.8v-2.2l-5,2.2l5.1-11.9
		C276.2,19.9,282,31.8,282,31.8z"/>
	<path class="st5" d="M259.3,47h6.3l3.3-8.4h15.2l3.8,8.5l6.1,0.1L276.2,9.7L259.3,47z M282,31.8h-5.8v-2.2l-5,2.2l5.1-11.9
		C276.2,19.9,282,31.8,282,31.8z"/>
	<path class="st0" d="M269.4,33.2v0.6h-1v3h-0.7v-3h-1v-0.6C266.7,33.2,269.4,33.2,269.4,33.2z M269.8,36.7h-0.7l1.5-3.5h0.7
		l1.5,3.5h-0.7l-0.4-1h-1.2l0.2-0.6h0.7l-0.6-1.3L269.8,36.7L269.8,36.7z M274,33.2v3.5h-0.7v-3.5H274z M274.5,33.2h0.7l0.4,2.5
		l0.9-2.5h0.6l0.9,2.4l0.4-2.4h0.7l-0.7,3.5h-0.6l-1-2.8l-1.1,2.8H275L274.5,33.2L274.5,33.2z M279.8,36.7h-0.7l1.5-3.5h0.7l1.5,3.5
		h-0.7l-0.4-1h-1.2l0.2-0.6h0.7l-0.6-1.3L279.8,36.7L279.8,36.7z M283.4,36.7v-3.5h0.7l1.9,2.6v-2.6h0.6v3.5h-0.7l-1.9-2.6v2.6
		L283.4,36.7L283.4,36.7z"/>
	<path class="st5" d="M428.9,1v1.4h-2.6V10h-1.7V2.4H422V1H428.9z M429.8,10h-1.7l3.9-9h1.8l3.9,9h-1.8l-1-2.5h-3l0.6-1.4h1.8
		l-1.4-3.4L429.8,10L429.8,10z M440.5,1v9h-1.7V1H440.5L440.5,1z M441.7,1h1.7l1,6.5l2.4-6.5h1.6l2.2,6.2l1-6.2h1.7l-1.7,9H450
		l-2.5-7.1l-2.7,7.1h-1.6L441.7,1z M455.4,10h-1.7l3.9-9h1.8l3.9,9h-1.8l-1-2.5h-3l0.6-1.4h1.8l-1.4-3.4L455.4,10L455.4,10z
		 M464.4,10V1h1.7l4.8,6.6V1h1.6v9h-1.7L466,3.3V10H464.4L464.4,10z"/>
	<g>
		<text transform="matrix(1 0 0 1 308.575 47.7171)" class="st5 st2 st3">NGULAR</text>
	</g>
	<g>
		<path class="st6" d="M249,11.6L276.3,2l28,9.4l-4.5,35.7L276.3,60l-23.1-12.7L249,11.6z"/>
	</g>
</g>
</svg>
