<?xml version="1.0" encoding="utf-8"?>
<!-- Generator: Adobe Illustrator 21.1.0, SVG Export Plug-In . SVG Version: 6.00 Build 0)  -->
<svg version="1.1" id="Capa_1" xmlns="http://www.w3.org/2000/svg" xmlns:xlink="http://www.w3.org/1999/xlink" x="0px" y="0px"
	 viewBox="0 0 345 291" style="enable-background:new 0 0 345 291;" xml:space="preserve">
<style type="text/css">
	.st0{fill:#263343;}
</style>
<g>
	<path class="st0" d="M317.8,5.6L13.1,124.4c-9.9,3.8-9.3,18,0.9,21l77.4,22.9l28.9,91.7c3,9.6,15.2,12.5,22.2,5.3l40-40.9
		l78.6,57.7c9.6,7.1,23.3,1.8,25.7-9.9l52-248.8C341.4,11.2,329.4,1.1,317.8,5.6z M279.6,60.8L138.1,186c-1.4,1.2-2.3,3-2.5,4.8
		l-5.4,48.4c-0.2,1.6-2.4,1.8-2.9,0.3l-22.4-72.3c-1-3.3,0.3-6.9,3.3-8.7L275.2,54.9C279.1,52.5,283,57.8,279.6,60.8z"/>
</g>
</svg>
